/* XPM */
static char * PolyGUI_xpm[] = {
"64 64 16 1",
" 	c None",
".	c #FDFFFC",
"+	c #D8D7FF",
"@	c #BBB9F9",
"#	c #A1A0FE",
"$	c #6465FA",
"%	c #3442FF",
"&	c #2727E7",
"*	c #8181FC",
"=	c #5E55FD",
"-	c #D8DBD7",
";	c #888A88",
">	c #666865",
",	c #B0B2B0",
"'	c #3B3DB5",
")	c #5B5D84",
"................................................................",
"................................................................",
"................................................................",
"................................++++++++++......................",
"........................+@#$$%%%%%&%%&%%%%%%%$*#@...............",
"....................+#$%%%%%%%%%%%%%%%%%%%%%%%%%%%=@+...........",
".................+#%%%%%$$##$%%%%%%=...++#*%%%%%%%%%%#..........",
"...............+$%%%=*@.....$%%%%%%*........@=%%%%%%%%=+........",
"..............#%%%%#........=%%%%%%#..........#%%%%%%%%=........",
"............+=%%%$+........+%%%%%%%+...........@%%%%%%%%*.......",
"...........@%%%%*..........+%%%%%%%.............#%%%%%%%%+......",
"..........@%%%%*...........#%%%%%%=..............=%%%%%%%@......",
".........+=%%%$............$%%%%%%$..............#%%%%%%%*......",
".........$%%%%+............=%%%%%%#..............+%%%%%%%$......",
"........#%%%%*.............%%%%%%%+...............%%%%%%%$......",
"........%%%%%+.-..........+%%%%%%%................%%%%%%%$......",
".......#%%%%=.;>>-........#%%%%%%=................%%%%%%%#......",
".......=%%%%*.;>->-.......*%%%%%%*................%%%%%%%@......",
"......@%%%%%#.,>-;>.......=%%%%%%#...............+%%%%%%=.......",
"......#%%%%%@..>,;>->>,...%%%%%%%+...............@%%%%%%*.......",
"......$%%%%%+..-;>>..>;..+%%%%%%%................*%%%%%%........",
"......%%%%%*.....--..>;.;'&%%%%%=................%%%%%%*........",
".....+%%%*...........>;.>'&&&=%%*...............#%%%%%=.........",
".....@%*.......-.....,;.;&=&&%&&#...............=%%%%%@.........",
".....+.........;>,......,&&&&&&&@..............$%%%%%#..........",
"................>;......+&&&&%&&,.;;,.........@%%%%%*...........",
"................>;.---..#&%&%%&&,->;,;.......@%%%%%*............",
"................>;..;>,.*%%%%%&',.>;->,>>;-.#%%%%=*.............",
"................,;...>,.=%%%&%%*-.>;->;>;,)*&&%%%@..............",
".....................>,.&&&%%%&+..+;;>;>;#&&&&&=+...............",
".....................>,@%&&&%%%.....-@#'&&&&&=)>-;;>..--........",
"..............->,....--#%&&&%%&,.$%&&&%&&&&'),,>--;>.->;>-.-....",
"..............;>,;.....*%%&&%&'>@&%%%%=$#@..,;;>-.;>.,>-;>,>....",
"..............,>,;;....=%&&&%%*>++@@)........-,,..;>.,>-;>;>....",
"..............->-;>-,,-%%%%%%%@>,.-;>-............,;.+>,;>;>....",
"...............+;>>.,>)%%%%%%%,>-..,>-.,,;............-;>,,>....",
"................-;,..>'=&&%%&$..-..,>-.-,>....-............-....",
".....................>'%&&&&%#.....,>-..,>..;>>.................",
"...............-.....>&%&&&&%.......-...,>...;>..,>;............",
"..............;>;-...-&&&&%&=,,;-.......,>...;>..-;;..,;,.......",
"..............;>->-..@%=&&&&).,>,............;>...;;..,>;..,....",
"..............,>-;;.-*%%%&&',.->,.;>,-.......-;...;;...>;..,....",
"...............>+>>;>&&%%%%@..->,->;,>............,;...>;.......",
"...............-;>>;)&&&%%#...+>,.>;->,>>;-............>;.......",
".................,-;'=&&&=,.....-.;)->;>;,>...-.................",
"...................-&&&&&);,.......;;>,>,,>,;>>.................",
"...................@%&&&>>->,.-.....-+.;;,>,.;>.->;;-...........",
"...................==&%+;>.>;;>;-.......;>>-.;>.,>,;;.-,,.......",
"..................*&%=+..;,>;>>->-...........;>.,>,;>-,>;..-....",
"................@$%%=.....,;,>;->,>>;-.......-;.->,;>-.>;.-,....",
"..........@###*=%%%#.........,>->>>;,;-.-........-;>;..>;.......",
".........@%%%%%%%%%%%&%%=$$$$$='),>;->,>>;-............>;.......",
"........@%%%%%%%%%%%%%%%%%%%%%=+-.;;->;>;,>...-.........-.......",
".......@%%%%%%%%%%%%%%%%%%%%%%+...+;;>,>;,>,;>>..+..............",
"......@%%%%%%%%%%%%%%%%%%%%%=+......-+.;;,>,.;>..,,;............",
".....+$$$=%%%%%%%%%%%%%%%%%%@...........;;>-.;>..,;>..-,-.......",
".................++++++@###@.................;>...;>..;>;.......",
".............................................-;...;>...>;.-;....",
"..................................................;>...>;.......",
"...................................................-...>;.......",
".......................................................--.......",
"................................................................",
"................................................................",
"................................................................"};
